<?xml version="1.0" encoding="UTF-8"?><svg id="Layer_1" xmlns="http://www.w3.org/2000/svg" viewBox="0 0 311.56 471.96"><defs><style>.cls-1{fill:#fff;stroke:#231f20;stroke-miterlimit:10;}</style></defs><path class="cls-1" d="M214.15,236.83l-.69-1.17-18.77-32.52-.67-1.17-18.77-32.49v-.03l-.69-1.17-18.77-32.52-18.77,32.52-.69,1.17-18.77,32.52-.69,1.17-18.77,32.52-.67,1.15-18.77,32.52H232.91l-18.77-32.49Zm-39.59-1.17h-37.53l-.69,1.17-.67-1.17h1.36l18.77-32.49-.69-1.2h1.39l-.69,1.2,18.77,32.49h1.33l-.67,1.17-.67-1.17Z"/><polygon class="cls-1" points="310.7 269.33 271.81 269.33 253.04 236.83 253.71 235.66 252.35 235.66 233.58 203.14 234.27 201.96 232.91 201.96 214.12 169.44 214.81 168.27 213.45 168.27 194.69 135.78 195.38 134.58 193.99 134.58 175.23 102.08 175.89 100.91 174.56 100.91 155.79 68.39 156.46 67.22 155.1 67.22 155.79 68.39 137.03 100.91 135.67 100.91 136.34 102.08 117.57 134.58 116.21 134.58 116.88 135.78 98.14 168.27 96.78 168.27 97.44 169.44 78.68 201.96 77.32 201.96 78.01 203.14 59.22 235.66 57.86 235.66 58.55 236.83 39.78 269.33 .87 269.33 19.63 236.81 20.3 235.66 39.09 203.14 39.76 201.96 58.55 169.42 59.22 168.27 77.98 135.75 78.68 134.58 97.44 102.08 98.11 100.91 116.88 68.39 117.54 67.22 136.34 34.69 155.79 1 175.25 34.69 194.02 67.22 194.69 68.39 213.48 100.91 214.15 102.08 232.91 134.58 233.58 135.75 252.35 168.27 253.04 169.44 271.81 201.96 272.5 203.14 291.26 235.66 291.93 236.81 310.7 269.33"/><polygon class="cls-1" points="271.81 336.71 39.76 336.71 58.55 304.19 59.22 303.02 96.75 303.02 97.44 304.22 98.14 303.02 135.67 303.02 136.34 304.19 137 303.02 174.56 303.02 175.23 304.19 175.92 303.02 213.45 303.02 214.15 304.19 214.81 303.02 252.35 303.02 253.04 304.19 271.81 336.71"/><polygon class="cls-1" points="232.91 404.08 78.68 404.08 97.44 371.56 98.11 370.41 135.67 370.41 136.34 371.58 137 370.41 174.59 370.41 175.25 371.56 175.92 370.41 213.45 370.41 214.15 371.56 232.91 404.08"/><polygon class="cls-1" points="175.23 438.94 156.46 471.46 155.1 471.46 136.34 438.94 137.03 437.77 174.56 437.77 175.23 438.94"/></svg>